<?xml version="1.0" encoding="UTF-8" standalone="no"?>
<svg
   id="Ebene_1"
   viewBox="0 0 496.19 343.8"
   version="1.1"
   sodipodi:docname="logo-light.svg"
   inkscape:version="1.2.2 (732a01da63, 2022-12-09)"
   xmlns:inkscape="http://www.inkscape.org/namespaces/inkscape"
   xmlns:sodipodi="http://sodipodi.sourceforge.net/DTD/sodipodi-0.dtd"
   xmlns="http://www.w3.org/2000/svg"
   xmlns:svg="http://www.w3.org/2000/svg">
  <sodipodi:namedview
     id="namedview87"
     pagecolor="#ffffff"
     bordercolor="#000000"
     borderopacity="0.25"
     inkscape:showpageshadow="2"
     inkscape:pageopacity="0.0"
     inkscape:pagecheckerboard="0"
     inkscape:deskcolor="#d1d1d1"
     showgrid="false"
     inkscape:zoom="2.4305206"
     inkscape:cx="248.095"
     inkscape:cy="171.97962"
     inkscape:window-width="2560"
     inkscape:window-height="1417"
     inkscape:window-x="2552"
     inkscape:window-y="-8"
     inkscape:window-maximized="1"
     inkscape:current-layer="Ebene_1" />
  <defs
     id="defs4">
    <style
       id="style2">
      .cls-1, .cls-2 {
        fill: #1d1d1b;
      }

      .cls-1, .cls-3 {
        stroke-width: 5px;
      }

      .cls-1, .cls-3, .cls-4 {
        stroke: #fff;
        stroke-miterlimit: 10;
      }

      .cls-5 {
        fill: #fff;
      }

      .cls-3 {
        fill: #258088;
      }

      .cls-6 {
        fill: #9db742;
      }

      .cls-4 {
        fill: none;
        stroke-width: 4.02px;
      }
    </style>
  </defs>
  <path
     class="cls-6"
     d="M247.8,307.73c104.36,0,196.04-54.25,248.39-136.09-52.45-81.33-143.83-135.19-247.8-135.19S52.35,90.7,0,172.54c52.44,81.33,143.83,135.19,247.8,135.19Z"
     id="path6" />
  <circle
     class="cls-5"
     cx="247.64"
     cy="171.34"
     r="118.5"
     id="circle8" />
  <g
     id="g44">
    <path
       class="cls-4"
       d="M251.14,59.16c-.95-.11-1.9-.17-2.85-.17s-1.84.05-2.75.15c.85-.02,1.7-.03,2.55-.03,1.02,0,2.04.02,3.05.04Z"
       id="path10" />
    <path
       class="cls-1"
       d="M300.53,172.03s0,.08,0,.13h60.59c0-34.21-15.2-64.87-39.21-85.6-9.23,8.03-19.78,14.58-31.27,19.29,6.22,18.6,9.89,41.47,9.89,66.18Z"
       id="path12" />
    <path
       class="cls-3"
       d="M290.64,105.84c-13.13,5.38-27.49,8.37-42.55,8.41v57.9h52.44s0-.08,0-.13c0-24.72-3.67-47.58-9.89-66.18Z"
       id="path14" />
    <path
       class="cls-1"
       d="M300.53,172.15c-.01,24.67-3.68,47.49-9.89,66.06,11.55,4.74,22.15,11.33,31.42,19.42,23.93-20.73,39.07-51.33,39.07-85.48h-60.59Z"
       id="path16" />
    <path
       class="cls-3"
       d="M248.09,229.8c15.06.04,29.42,3.02,42.55,8.41,6.21-18.57,9.88-41.39,9.89-66.06h-52.44v57.65Z"
       id="path18" />
    <path
       class="cls-1"
       d="M196.04,172.03c0-24.56,3.62-47.29,9.77-65.83-11.71-4.69-22.45-11.27-31.85-19.38-23.84,20.72-38.91,51.27-38.91,85.33h60.98s0-.08,0-.13Z"
       id="path20" />
    <path
       class="cls-3"
       d="M248.09,114.25c-.1,0-.21,0-.31,0-14.83,0-28.99-2.86-41.97-8.05-6.15,18.54-9.77,41.27-9.77,65.83,0,.04,0,.08,0,.13h52.05v-57.9Z"
       id="path22" />
    <path
       class="cls-1"
       d="M196.04,172.15h-60.98c0,33.99,15.01,64.48,38.76,85.2,9.43-8.16,20.22-14.79,31.99-19.5-6.14-18.51-9.76-41.19-9.77-65.7Z"
       id="path24" />
    <path
       class="cls-3"
       d="M248.09,229.8v-57.65h-52.05c.01,24.51,3.63,47.19,9.77,65.7,12.98-5.19,27.14-8.05,41.97-8.05.1,0,.21,0,.31,0Z"
       id="path26" />
    <path
       class="cls-1"
       d="M248.29,285.06c-.06,0-.13,0-.19,0v.13c28.28,0,54.14-10.39,73.96-27.56-9.27-8.08-19.86-14.68-31.42-19.42-9.49,28.38-24.92,46.85-42.35,46.85Z"
       id="path28" />
    <path
       class="cls-3"
       d="M248.09,285.05c.06,0,.13,0,.19,0,17.43,0,32.86-18.47,42.35-46.85-13.13-5.38-27.49-8.37-42.55-8.41v55.25Z"
       id="path30" />
    <path
       class="cls-1"
       d="M205.81,237.85c-11.77,4.71-22.56,11.34-31.99,19.5,19.86,17.33,45.84,27.83,74.27,27.83v-.13c-17.42-.14-32.83-18.72-42.28-47.2Z"
       id="path32" />
    <path
       class="cls-3"
       d="M247.79,229.8c-14.83,0-28.99,2.86-41.97,8.05,9.45,28.48,24.86,47.06,42.28,47.2v-55.25c-.1,0-.21,0-.31,0Z"
       id="path34" />
    <path
       class="cls-1"
       d="M245.54,59.15c-27.36.61-52.33,10.94-71.57,27.67,9.39,8.11,20.14,14.69,31.85,19.38,8.98-27.08,23.36-45.22,39.73-47.05Z"
       id="path36" />
    <path
       class="cls-3"
       d="M205.81,106.2c12.98,5.19,27.14,8.05,41.97,8.05.1,0,.21,0,.31,0v-55.13c-.85,0-1.7.01-2.55.03-16.37,1.83-30.75,19.97-39.73,47.05Z"
       id="path38" />
    <path
       class="cls-1"
       d="M290.64,105.84c11.49-4.71,22.04-11.26,31.27-19.29-19.09-16.48-43.75-26.67-70.77-27.39,16.25,1.89,30.53,19.86,39.5,46.68Z"
       id="path40" />
    <path
       class="cls-3"
       d="M248.09,114.25c15.06-.04,29.42-3.03,42.55-8.41-8.97-26.82-23.25-44.78-39.5-46.68-1.01-.03-2.03-.04-3.05-.04v55.13Z"
       id="path42" />
  </g>
  <g
     id="g66"
     style="fill:#ffffff">
    <path
       class="cls-2"
       d="M116.15,58.95c-2.45,3.73-5.82,6.6-9.73,8.78-8.3,4.63-17.38,2.56-22.14-5.97-4.76-8.52-1.75-17.34,6.55-21.97,4.21-2.35,8.45-3.48,12.5-2.49l-1.62,6.81c-2.5-.77-4.9-.57-7.86,1.09-4.99,2.79-6.25,8.21-3.48,13.17,2.77,4.96,8.04,6.74,13.04,3.95,2.55-1.42,4.03-3.19,4.79-4.39l-2.41-4.32-4.77,2.66-3.02-5.41,10.4-5.8,7.75,13.89Z"
       id="path46"
       style="fill:#ffffff" />
    <path
       class="cls-2"
       d="M118.53,26.82l19.21-7.66,2.29,5.75-12.98,5.18,2.1,5.27,12.26-4.89,2.29,5.75-12.26,4.89,2.29,5.75,13.7-5.46,2.29,5.75-19.93,7.95-11.28-28.27Z"
       id="path48"
       style="fill:#ffffff" />
    <path
       class="cls-2"
       d="M168.82,9.03c9.22-2.31,17.45,2.05,19.82,11.51,2.38,9.47-2.82,17.2-12.04,19.51-9.22,2.31-17.45-2.05-19.82-11.51-2.38-9.47,2.82-17.2,12.04-19.51ZM175.1,34.05c5.55-1.39,8.17-6.31,6.79-11.81-1.38-5.5-6.02-8.6-11.56-7.21-5.55,1.39-8.17,6.31-6.79,11.81,1.38,5.5,6.01,8.6,11.56,7.21Z"
       id="path50"
       style="fill:#ffffff" />
    <path
       class="cls-2"
       d="M216.75,8.95c-1.23-1.24-3.44-1.63-5.06-1.44-1.88.22-4.38,1.38-4.12,3.65.65,5.51,14.15.33,15.4,10.92.79,6.75-4.25,10.59-10.49,11.32-3.89.46-7.44-.29-10.61-2.61l4.13-5.77c1.58,1.63,3.92,2.44,6.14,2.18,2.18-.26,4.49-1.57,4.24-3.7-.65-5.55-14.48-.9-15.67-10.98-.76-6.45,4.44-10.48,10.38-11.18,3.42-.4,6.81.11,9.64,2.07l-3.98,5.53Z"
       id="path52"
       style="fill:#ffffff" />
    <path
       class="cls-2"
       d="M236.48.12L247.79,0c6.32-.06,11.59,1.9,11.66,9.13.07,7.14-4.76,9.38-11.17,9.45l-4.9.05.12,11.87-6.71.07-.31-30.44ZM243.32,12.95l4.47-.05c2.37-.02,4.72-.87,4.69-3.7-.03-3.14-3.22-3.54-5.8-3.51l-3.44.04.07,7.22Z"
       id="path54"
       style="fill:#ffffff" />
    <path
       class="cls-2"
       d="M281.01,1.61l5.51.6,9.88,31.7-7.53-.82-1.91-6.7-11.76-1.28-3.22,6.14-7.35-.8,16.37-28.85ZM282.62,10.69l-4.7,9.01,7.4.8-2.7-9.81Z"
       id="path56"
       style="fill:#ffffff" />
    <path
       class="cls-2"
       d="M314.23,12.73l-8.48-1.87,1.28-5.79,23.52,5.2-1.28,5.79-8.48-1.87-5.29,23.94-6.55-1.45,5.29-23.94Z"
       id="path58"
       style="fill:#ffffff" />
    <path
       class="cls-2"
       d="M343.99,14.28l6.39,2.04-9.25,29.01-6.39-2.04,9.25-29.01Z"
       id="path60"
       style="fill:#ffffff" />
    <path
       class="cls-2"
       d="M375.75,25.9l5.08,2.22-.04,33.2-6.94-3.03.18-6.96-10.84-4.73-4.91,4.9-6.78-2.96,24.24-22.64ZM374.57,35.05l-7.17,7.19,6.82,2.98.35-10.17Z"
       id="path62"
       style="fill:#ffffff" />
    <path
       class="cls-2"
       d="M405.87,40.52l5.78,3.4-12.29,20.9,10.71,6.3-3.14,5.34-16.49-9.7,15.43-26.24Z"
       id="path64"
       style="fill:#ffffff" />
  </g>
  <g
     id="g84"
     style="fill:#ffffff">
    <path
       class="cls-2"
       d="M100.95,309.08l24.72-22.26,3.41,1.53-.61,33.11-4.39-1.98.3-8.12-13.22-5.94-5.83,5.63-4.39-1.98ZM113.99,302.73l10.51,4.73.56-15.07-.08-.04-10.99,10.38Z"
       id="path68"
       style="fill:#ffffff" />
    <path
       class="cls-2"
       d="M147.18,328.11l8.23-29.31,5.22,1.46,9.38,28.63.08.02,6.77-24.09,3.97,1.12-8.23,29.31-5.05-1.42-9.54-28.67-.08-.02-6.77,24.09-3.97-1.12Z"
       id="path70"
       style="fill:#ffffff" />
    <path
       class="cls-2"
       d="M192.03,339.31l17.1-28.53,3.71.47,9.14,31.83-4.78-.6-2.09-7.85-14.38-1.81-3.92,7.09-4.78-.6ZM202.63,329.41l11.43,1.44-3.89-14.57h-.09s-7.46,13.14-7.46,13.14Z"
       id="path72"
       style="fill:#ffffff" />
    <path
       class="cls-2"
       d="M244.97,339.89l13.97-.14.04,3.87-18.1.19-.31-30.44,4.13-.04.27,26.57Z"
       id="path74"
       style="fill:#ffffff" />
    <path
       class="cls-2"
       d="M269.58,312.6l9.61,12.47,7.17-14.17,5.01-.51-9.71,18.53,1.31,12.92-4.11.42-1.31-12.92-13.23-16.21,5.26-.53Z"
       id="path76"
       style="fill:#ffffff" />
    <path
       class="cls-2"
       d="M325.8,307.06l-11.7,26,17.05-3.93.87,3.77-22.17,5.11-.86-3.73,11.78-26.06-16.38,3.78-.87-3.77,21.41-4.94.87,3.77Z"
       id="path78"
       style="fill:#ffffff" />
    <path
       class="cls-2"
       d="M340.67,298.48l18.44-6.79,1.34,3.63-14.57,5.36,3.13,8.52,13.56-4.99,1.34,3.63-13.56,4.99,3.37,9.16,15.3-5.63,1.34,3.63-19.17,7.05-10.51-28.58Z"
       id="path80"
       style="fill:#ffffff" />
    <path
       class="cls-2"
       d="M389.2,311.54l-14.04-27.01,9.69-5.04c4.69-2.44,9.66-2.12,12.4,3.15,1.55,2.98,1.31,7.65-2.89,10.57l-.04.02,14.08,8.33-4.58,2.38-13.05-8.33-4.08,2.12,6.19,11.9-3.66,1.9ZM385.01,294.53l4.96-2.58c3.78-1.96,4.93-4.31,3.38-7.28-1.53-2.94-4.17-3.36-7.91-1.41l-4.96,2.58,4.52,8.7Z"
       id="path82"
       style="fill:#ffffff" />
  </g>
</svg>
